<svg width="24" height="24" viewBox="0 0 24 24" fill="none" xmlns="http://www.w3.org/2000/svg">
<path d="M19.5 14.505C19.5 19.0795 15.7118 22.7588 11.1376 22.4857C6.43609 22.205 3.2169 17.6836 3.8233 12.9574C4.19014 10.0822 5.53771 7.61662 7.00506 5.70487C7.2596 5.37108 7.52163 8.05662 7.78365 7.76075C8.04568 7.4573 10.4788 3.24692 11.3248 1.76759C11.482 1.49449 11.8413 1.41104 12.0959 1.60828C13.7953 2.89036 19.5 7.70765 19.5 14.505Z" fill="#FF6723"/>
<path d="M17.25 16.3884C17.25 19.4197 14.6109 21.8565 11.4008 21.7464C7.9361 21.629 5.5594 18.4582 6.0687 15.192C6.80177 10.5093 11.6092 7.5 11.6092 7.5C11.6092 7.5 17.25 11.0304 17.25 16.3884Z" fill="#FFB02E"/>
</svg>
